<svg version="1.1" xmlns="http://www.w3.org/2000/svg" xmlns:xlink="http://www.w3.org/1999/xlink" x="0px" y="0px"
	 viewBox="0 0 227 66" style="enable-background:new 0 0 227 66;" xml:space="preserve">
<style type="text/css">
	.st0{fill:#3078D7;}
	.st1{fill:#FFFFFF;}
	.st2{fill:#30363E;}
</style>
<g id="Layer_2">
</g>
<g id="Layer_1">
	<g>
		<rect y="12" class="st0" width="18" height="42"/>
		<rect x="26" class="st0" width="18" height="54"/>
		<rect x="52" y="12" class="st0" width="18" height="54"/>
		<rect x="78" y="12" class="st0" width="18" height="42"/>
		<g>
			<g>
				<path class="st2" d="M116.4,12.4c5.7,0,9.4,3.8,9.4,8.8c0,5.2-3.8,8.8-9.4,8.8h-6.8V12.4H116.4z M113.1,15.3v11.8h3.3
					c3.4,0,5.8-2.4,5.8-5.9c0-3.5-2.4-5.9-5.8-5.9H113.1z"/>
				<path class="st2" d="M137.3,11.9c5.5,0,9.4,3.9,9.4,9.3c0,5.4-3.9,9.3-9.4,9.3c-5.5,0-9.4-3.9-9.4-9.3
					C127.8,15.8,131.7,11.9,137.3,11.9z M137.3,14.9c-3.3,0-5.8,2.5-5.8,6.3s2.5,6.3,5.8,6.3c3.3,0,5.8-2.5,5.8-6.3
					S140.5,14.9,137.3,14.9z"/>
				<path class="st2" d="M158.6,27.5l-4.4-9.4h-0.1L152.7,30h-3.6l2.1-17.6h3.9l5,10.9h0.1l5-10.9h3.9l2.1,17.6h-3.6L166.3,18h-0.1
					l-4.4,9.4H158.6z"/>
				<path class="st2" d="M191.9,30h-3.8l-1.4-3.5h-8.7l-1.4,3.5h-3.8l7.3-17.6h4.4L191.9,30z M179.3,23.5h6.2l-3-7.3h-0.1
					L179.3,23.5z"/>
				<path class="st2" d="M197.7,30h-3.5V12.4h3.5V30z"/>
				<path class="st2" d="M214.3,24.5V12.4h3.5V30h-3.8l-8.7-12.1h-0.1V30h-3.5V12.4h3.8l8.7,12.1H214.3z"/>
				<path class="st2" d="M117.6,36.4c4.9,0,7.5,2.6,7.5,6c0,3.4-2.6,6-7.5,6h-4.5V54h-3.5V36.4H117.6z M113.1,39.3v6.3h4.5
					c2.4,0,3.9-1.5,3.9-3.1c0-1.6-1.5-3.1-3.9-3.1H113.1z"/>
				<path class="st2" d="M144.2,54h-3.8l-1.4-3.5h-8.7L129,54h-3.8l7.3-17.6h4.4L144.2,54z M131.6,47.5h6.2l-3-7.3h-0.1L131.6,47.5z
					"/>
				<path class="st2" d="M154.5,36.4c4.8,0,7.3,2.5,7.3,5.8c0,3.8-3.3,5-3.3,5v0.1l4.7,6.7H159l-4.1-6H150v6h-3.5V36.4H154.5z
					 M154.5,39.3H150v5.8h4.5c2.4,0,3.6-1.5,3.6-2.9C158.1,40.6,156.9,39.3,154.5,39.3z"/>
				<path class="st2" d="M174.5,43.9l7.4,10.2h-4l-5.7-7.8l-3.1,3.3V54h-3.5V36.4h3.5v8.3h0.1l7.9-8.3h4.3L174.5,43.9z"/>
				<path class="st2" d="M187.4,54h-3.5V36.4h3.5V54z"/>
				<path class="st2" d="M204.1,48.5V36.4h3.5V54h-3.8L195.2,42H195V54h-3.5V36.4h3.8l8.7,12.1H204.1z"/>
				<path class="st2" d="M226.1,37.7l-1.5,2.4c0,0-1.8-1.1-4.1-1.1c-3.8,0-6.3,2.5-6.3,6.3c0,3.8,2.5,6.3,6.3,6.3c1.8,0,3-0.6,3-0.6
					v-4.1h-3.6v-2.9h7.2v8.5c0,0-2.8,2.2-6.8,2.2c-5.7,0-9.6-3.9-9.6-9.3c0-5.4,3.9-9.3,9.6-9.3C223.9,35.9,226.1,37.7,226.1,37.7z"
					/>
			</g>
		</g>
	</g>
</g>
</svg>
